<svg id="visual" viewBox="0 0 960 540" width="960" height="540" xmlns="http://www.w3.org/2000/svg" xmlns:xlink="http://www.w3.org/1999/xlink" version="1.1"><rect x="0" y="0" width="960" height="540" fill="#1470b6"></rect><defs><linearGradient id="grad1_0" x1="43.8%" y1="0%" x2="100%" y2="100%"><stop offset="14.444444444444446%" stop-color="#1470b6" stop-opacity="1"></stop><stop offset="85.55555555555554%" stop-color="#1470b6" stop-opacity="1"></stop></linearGradient></defs><defs><linearGradient id="grad2_0" x1="0%" y1="0%" x2="56.3%" y2="100%"><stop offset="14.444444444444446%" stop-color="#1470b6" stop-opacity="1"></stop><stop offset="85.55555555555554%" stop-color="#1470b6" stop-opacity="1"></stop></linearGradient></defs><g transform="translate(960, 0)"><path d="M0 486C-48.3 441 -96.6 396 -156.5 377.9C-216.4 359.8 -288 368.5 -340.8 340.8C-393.7 313.1 -427.9 248.9 -449 186C-470.1 123.1 -478 61.5 -486 0L0 0Z" fill="#FBAE3C"></path></g><g transform="translate(0, 540)"><path d="M0 -486C70.2 -486.2 140.3 -486.3 186 -449C231.7 -411.7 252.9 -336.9 286.4 -286.4C319.9 -235.9 365.6 -209.8 401 -166.1C436.3 -122.4 461.1 -61.2 486 0L0 0Z" fill="#FBAE3C"></path></g></svg>